<svg width="200" height="20" viewBox="0 0 200 20" fill="none" xmlns="http://www.w3.org/2000/svg">
<path d="M7.50198 13.989H7.89914V0H10.8117V15.4453H5.119L3.3097 1.45627H2.91253V15.4453H0V0H5.69268L7.50198 13.989Z" fill="white"/>
<path d="M14.106 0H23.991V2.78015H17.0186V6.31049H23.8586V9.09063H17.0186V15.4453H14.106V0Z" fill="white"/>
<path d="M26.8661 0H37.9867V2.78015H33.8827V15.4453H30.9701V2.78015H26.8661V0Z" fill="white"/>
<path d="M53.1806 0H58.2996L59.1822 11.606V13.8566H59.7118V11.606L60.5943 0H65.7133V15.4453H63.0656V5.119L63.3304 1.58866H62.8008L61.6534 15.4453H57.2846L56.0931 1.58866H55.5636L55.8284 5.119V15.4453H53.1806V0Z" fill="white"/>
<path d="M75.0093 13.8566C74.7151 14.548 74.3032 15.0407 73.7736 15.3349C73.2441 15.6144 72.6263 15.7542 71.9202 15.7542C71.2583 15.7542 70.6331 15.6291 70.0447 15.3791C69.471 15.129 68.9636 14.7612 68.5223 14.2758C68.081 13.7904 67.7279 13.202 67.4632 12.5107C67.2131 11.8193 67.0881 11.0323 67.0881 10.1497V9.7967C67.0881 8.92883 67.2131 8.14921 67.4632 7.45785C67.7132 6.76649 68.0516 6.1781 68.4781 5.69268C68.9047 5.20726 69.3975 4.83951 69.9565 4.58945C70.5301 4.32467 71.1406 4.19228 71.7878 4.19228C72.5675 4.19228 73.1926 4.32467 73.6633 4.58945C74.1487 4.85422 74.5312 5.2661 74.8107 5.82507H75.2078V4.50119H77.988V12.1356C77.988 12.5768 78.1866 12.7975 78.5837 12.7975H79.003V15.4453H77.1054C76.6053 15.4453 76.1934 15.2982 75.8698 15.004C75.5609 14.7098 75.4064 14.3273 75.4064 13.8566H75.0093ZM72.538 13.1064C73.3471 13.1064 73.9943 12.8416 74.4797 12.3121C74.9651 11.7678 75.2078 11.0323 75.2078 10.1056V9.84083C75.2078 8.91412 74.9651 8.18598 74.4797 7.65643C73.9943 7.11217 73.3471 6.84004 72.538 6.84004C71.729 6.84004 71.0818 7.11217 70.5963 7.65643C70.1109 8.18598 69.8682 8.91412 69.8682 9.84083V10.1056C69.8682 11.0323 70.1109 11.7678 70.5963 12.3121C71.0818 12.8416 71.729 13.1064 72.538 13.1064Z" fill="white"/>
<path d="M80.9073 4.50119H85.5408V6.08984H85.938C86.1439 5.48674 86.4896 5.02338 86.975 4.69977C87.4752 4.36144 88.0709 4.19228 88.7623 4.19228C89.8508 4.19228 90.726 4.53796 91.388 5.22932C92.0499 5.90597 92.3809 6.94301 92.3809 8.34044V8.82586L89.5125 9.09063V8.78173C89.5125 8.17863 89.358 7.70056 89.0491 7.34753C88.7402 6.97978 88.2768 6.79591 87.659 6.79591C87.0412 6.79591 86.5558 7.0092 86.2028 7.43579C85.8497 7.86237 85.6732 8.47282 85.6732 9.26715V12.7975H88.1886V15.4453H80.6425V12.7975H82.8931V7.14894H80.9073V4.50119Z" fill="white"/>
<path d="M98.6098 8.51695H99.1394L102.052 4.50119H105.097V4.63358L101.566 9.64225V10.0394L105.45 15.3129V15.4453H102.273L99.1394 11.1647H98.6098V15.4453H95.8297V0H98.6098V8.51695Z" fill="white"/>
<path d="M110.907 10.8779C110.921 11.2015 110.995 11.503 111.127 11.7825C111.274 12.0473 111.466 12.2827 111.701 12.4886C111.951 12.6798 112.23 12.8343 112.539 12.9519C112.863 13.0549 113.201 13.1064 113.554 13.1064C114.246 13.1064 114.775 12.9887 115.143 12.7534C115.511 12.5033 115.775 12.2091 115.937 11.8708L118.32 13.1947C118.188 13.4741 118.004 13.7683 117.769 14.0772C117.533 14.3714 117.224 14.6436 116.842 14.8936C116.474 15.1437 116.018 15.3496 115.474 15.5114C114.944 15.6733 114.319 15.7542 113.598 15.7542C112.775 15.7542 112.024 15.6218 111.348 15.357C110.671 15.0922 110.083 14.7098 109.583 14.2096C109.097 13.7095 108.715 13.099 108.435 12.3783C108.171 11.6575 108.038 10.8411 108.038 9.92909V9.7967C108.038 8.95825 108.178 8.19334 108.457 7.50198C108.752 6.81062 109.149 6.22223 109.649 5.73681C110.149 5.25139 110.73 4.87629 111.392 4.61151C112.069 4.33203 112.789 4.19228 113.554 4.19228C114.496 4.19228 115.305 4.36144 115.981 4.69977C116.658 5.02338 117.217 5.44261 117.658 5.95745C118.1 6.45759 118.423 7.01656 118.629 7.63437C118.835 8.23747 118.938 8.82586 118.938 9.39954V10.8779H110.907ZM113.532 6.70765C112.826 6.70765 112.252 6.89152 111.811 7.25927C111.37 7.6123 111.083 8.02418 110.951 8.49489H116.114C116.026 7.98005 115.746 7.55346 115.275 7.21514C114.819 6.87681 114.238 6.70765 113.532 6.70765Z" fill="white"/>
<path d="M121.659 4.50119H124.902V0H127.682V4.50119H131.632V7.14894H127.682V12.1356C127.682 12.5768 127.881 12.7975 128.278 12.7975H131.235V15.4453H126.601C126.101 15.4453 125.689 15.2834 125.366 14.9598C125.057 14.6362 124.902 14.2243 124.902 13.7242V7.14894H121.659V4.50119Z" fill="white"/>
<path d="M137.684 19.8582H134.904V4.50119H137.684V6.08984H138.082C138.376 5.48674 138.802 5.02338 139.361 4.69977C139.92 4.36144 140.634 4.19228 141.502 4.19228C142.149 4.19228 142.759 4.31732 143.333 4.56738C143.921 4.81745 144.429 5.18519 144.855 5.67061C145.297 6.14133 145.642 6.72236 145.892 7.41372C146.157 8.10508 146.29 8.89205 146.29 9.77464V10.1718C146.29 11.0691 146.165 11.8634 145.915 12.5548C145.664 13.2461 145.326 13.8345 144.9 14.32C144.473 14.7907 143.965 15.1511 143.377 15.4011C142.803 15.6365 142.178 15.7542 141.502 15.7542C141.001 15.7542 140.568 15.7027 140.2 15.5997C139.832 15.4967 139.508 15.357 139.229 15.1805C138.964 15.004 138.736 14.8054 138.545 14.5847C138.368 14.3494 138.214 14.1067 138.082 13.8566H137.684V19.8582ZM140.597 13.1064C141.465 13.1064 142.164 12.8416 142.693 12.3121C143.237 11.7678 143.509 11.0323 143.509 10.1056V9.84083C143.509 8.91412 143.237 8.18598 142.693 7.65643C142.164 7.11217 141.465 6.84004 140.597 6.84004C139.729 6.84004 139.023 7.11953 138.479 7.6785C137.949 8.22276 137.684 8.94354 137.684 9.84083V10.1056C137.684 11.0029 137.949 11.731 138.479 12.29C139.023 12.8343 139.729 13.1064 140.597 13.1064Z" fill="white"/>
<path d="M148.922 12.7975H152.761V2.64776H149.054V0H155.541V12.7975H159.116V15.4453H148.922V12.7975Z" fill="white"/>
<path d="M169.581 13.8566C169.287 14.548 168.875 15.0407 168.346 15.3349C167.816 15.6144 167.198 15.7542 166.492 15.7542C165.83 15.7542 165.205 15.6291 164.617 15.3791C164.043 15.129 163.536 14.7612 163.094 14.2758C162.653 13.7904 162.3 13.202 162.035 12.5107C161.785 11.8193 161.66 11.0323 161.66 10.1497V9.7967C161.66 8.92883 161.785 8.14921 162.035 7.45785C162.285 6.76649 162.624 6.1781 163.05 5.69268C163.477 5.20726 163.969 4.83951 164.528 4.58945C165.102 4.32467 165.713 4.19228 166.36 4.19228C167.139 4.19228 167.765 4.32467 168.235 4.58945C168.721 4.85422 169.103 5.2661 169.383 5.82507H169.78V4.50119H172.56V12.1356C172.56 12.5768 172.759 12.7975 173.156 12.7975H173.575V15.4453H171.677C171.177 15.4453 170.765 15.2982 170.442 15.004C170.133 14.7098 169.978 14.3273 169.978 13.8566H169.581ZM167.11 13.1064C167.919 13.1064 168.566 12.8416 169.052 12.3121C169.537 11.7678 169.78 11.0323 169.78 10.1056V9.84083C169.78 8.91412 169.537 8.18598 169.052 7.65643C168.566 7.11217 167.919 6.84004 167.11 6.84004C166.301 6.84004 165.654 7.11217 165.168 7.65643C164.683 8.18598 164.44 8.91412 164.44 9.84083V10.1056C164.44 11.0323 164.683 11.7678 165.168 12.3121C165.654 12.8416 166.301 13.1064 167.11 13.1064Z" fill="white"/>
<path d="M186.688 11.4295C186.438 12.7239 185.842 13.7683 184.901 14.5627C183.974 15.357 182.731 15.7542 181.172 15.7542C180.363 15.7542 179.605 15.6291 178.899 15.3791C178.208 15.129 177.605 14.7686 177.09 14.2979C176.575 13.8272 176.171 13.2461 175.876 12.5548C175.582 11.8634 175.435 11.0765 175.435 10.1939V9.92909C175.435 9.0465 175.582 8.25218 175.876 7.54611C176.171 6.84004 176.575 6.23694 177.09 5.73681C177.62 5.23668 178.23 4.85422 178.921 4.58945C179.627 4.32467 180.378 4.19228 181.172 4.19228C182.702 4.19228 183.937 4.58945 184.879 5.38377C185.835 6.1781 186.438 7.22249 186.688 8.51695L183.952 9.22302C183.864 8.57579 183.584 8.01682 183.114 7.54611C182.643 7.0754 181.981 6.84004 181.128 6.84004C180.731 6.84004 180.356 6.91359 180.002 7.06069C179.649 7.20778 179.341 7.42108 179.076 7.70056C178.811 7.96534 178.598 8.29631 178.436 8.69347C178.289 9.07592 178.215 9.50986 178.215 9.99528V10.1277C178.215 10.6131 178.289 11.047 178.436 11.4295C178.598 11.7972 178.811 12.1061 179.076 12.3562C179.341 12.6063 179.649 12.7975 180.002 12.9299C180.356 13.0476 180.731 13.1064 181.128 13.1064C181.981 13.1064 182.628 12.8931 183.069 12.4665C183.525 12.0399 183.82 11.4663 183.952 10.7455L186.688 11.4295Z" fill="white"/>
<path d="M191.968 10.8779C191.983 11.2015 192.057 11.503 192.189 11.7825C192.336 12.0473 192.527 12.2827 192.763 12.4886C193.013 12.6798 193.292 12.8343 193.601 12.9519C193.925 13.0549 194.263 13.1064 194.616 13.1064C195.307 13.1064 195.837 12.9887 196.205 12.7534C196.572 12.5033 196.837 12.2091 196.999 11.8708L199.382 13.1947C199.25 13.4741 199.066 13.7683 198.83 14.0772C198.595 14.3714 198.286 14.6436 197.904 14.8936C197.536 15.1437 197.08 15.3496 196.536 15.5114C196.006 15.6733 195.381 15.7542 194.66 15.7542C193.836 15.7542 193.086 15.6218 192.41 15.357C191.733 15.0922 191.145 14.7098 190.644 14.2096C190.159 13.7095 189.777 13.099 189.497 12.3783C189.232 11.6575 189.1 10.8411 189.1 9.92909V9.7967C189.1 8.95825 189.24 8.19334 189.519 7.50198C189.813 6.81062 190.21 6.22223 190.711 5.73681C191.211 5.25139 191.792 4.87629 192.454 4.61151C193.13 4.33203 193.851 4.19228 194.616 4.19228C195.557 4.19228 196.366 4.36144 197.043 4.69977C197.72 5.02338 198.279 5.44261 198.72 5.95745C199.161 6.45759 199.485 7.01656 199.691 7.63437C199.897 8.23747 200 8.82586 200 9.39954V10.8779H191.968ZM194.594 6.70765C193.888 6.70765 193.314 6.89152 192.873 7.25927C192.432 7.6123 192.145 8.02418 192.012 8.49489H197.176C197.087 7.98005 196.808 7.55346 196.337 7.21514C195.881 6.87681 195.3 6.70765 194.594 6.70765Z" fill="white"/>
</svg>
